<?xml version="1.0" standalone="no"?>
<!DOCTYPE svg PUBLIC "-//W3C//DTD SVG 20010904//EN"
 "http://www.w3.org/TR/2001/REC-SVG-20010904/DTD/svg10.dtd">
<svg version="1.0" xmlns="http://www.w3.org/2000/svg"
 width="512.000000pt" height="512.000000pt" viewBox="0 0 512.000000 512.000000"
 preserveAspectRatio="xMidYMid meet">

<g transform="translate(0.000000,512.000000) scale(0.100000,-0.100000)"
fill="#000000" stroke="none">
<path d="M2492 5109 c-45 -13 -108 -80 -121 -126 -6 -21 -11 -84 -11 -140 l0
-103 -1112 -2 -1113 -3 -38 -24 c-21 -13 -50 -42 -65 -64 l-27 -41 0 -866 0
-866 27 -41 c15 -22 44 -51 65 -64 l38 -24 1111 -3 1112 -2 3 -123 c5 -140 20
-177 92 -225 34 -23 52 -27 107 -27 55 0 73 4 107 27 22 15 51 44 64 65 24 37
24 42 27 341 l3 303 22 -6 c52 -16 158 -89 209 -144 65 -69 107 -139 140 -231
23 -65 23 -66 26 -657 2 -326 0 -593 -3 -593 -3 0 -22 8 -43 19 -228 114 -632
143 -921 66 -50 -14 -151 -52 -224 -86 -326 -151 -372 -164 -587 -164 -216 0
-263 14 -587 164 -153 71 -274 106 -422 122 -202 22 -282 2 -339 -84 -37 -56
-39 -153 -3 -210 42 -68 84 -88 213 -98 200 -15 248 -30 545 -168 203 -94 370
-131 593 -131 220 0 392 38 591 130 327 152 373 165 589 165 215 0 262 -13
587 -164 203 -94 370 -131 593 -131 220 0 392 38 591 130 299 139 347 154 546
169 129 10 167 27 211 94 23 34 27 52 27 107 0 55 -4 73 -27 107 -15 22 -44
51 -65 64 -35 22 -48 24 -158 23 -170 -3 -345 -38 -487 -98 -15 -7 -17 38 -21
621 -5 644 -6 666 -47 838 -83 347 -293 698 -552 925 -258 225 -581 382 -883
430 -38 6 -80 13 -92 16 l-22 4 -3 328 -3 329 -27 40 c-15 22 -43 50 -62 62
-41 26 -125 35 -174 20z m-132 -1369 l0 -600 -980 0 -980 0 0 600 0 600 980 0
980 0 0 -600z m543 155 c263 -68 482 -198 671 -395 180 -190 297 -412 359
-682 20 -89 21 -124 24 -794 l4 -701 -23 -7 c-44 -12 -224 -19 -300 -12 l-77
8 -3 691 c-4 685 -4 693 -27 777 -32 121 -117 290 -195 387 -128 161 -332 292
-533 343 l-43 11 0 199 0 200 24 0 c13 0 67 -11 119 -25z"/>
<path d="M132 689 c-47 -14 -109 -79 -123 -131 -23 -88 12 -182 86 -228 28
-17 60 -24 148 -31 199 -15 248 -30 544 -168 203 -94 370 -131 593 -131 220 0
392 38 591 130 327 152 373 165 589 165 215 0 262 -13 587 -164 203 -94 370
-131 593 -131 220 0 392 38 591 130 299 139 347 154 546 169 129 10 167 27
211 94 23 34 27 52 27 107 0 55 -4 73 -27 107 -15 22 -44 51 -65 64 -35 22
-48 24 -168 23 -213 -1 -335 -33 -600 -157 -88 -41 -182 -82 -208 -91 -97 -32
-226 -48 -347 -43 -186 8 -244 25 -547 166 -223 103 -406 139 -663 128 -226
-10 -337 -40 -595 -160 -190 -89 -227 -102 -348 -123 -65 -12 -125 -15 -207
-11 -188 9 -245 26 -547 166 -73 34 -174 72 -225 86 -153 40 -358 56 -436 34z"/>
</g>
</svg>
