<?xml version="1.0" encoding="utf-8"?><svg version="1.1" id="Layer_1" xmlns="http://www.w3.org/2000/svg" xmlns:xlink="http://www.w3.org/1999/xlink" x="0px" y="0px" viewBox="0 0 115.44 122.88" style="enable-background:new 0 0 115.44 122.88" xml:space="preserve"><g><path d="M15.78,85.7c2.67,12.4,10.69,18.59,10.69,24.79c0,6.2-2.67,12.4-10.69,12.4c-8.02,0-10.69-6.2-10.69-12.4 C5.09,104.29,13.11,98.09,15.78,85.7L15.78,85.7z M98.41,39.73H76.4l5.49,20.46h16.48l0.05,0V39.73L98.41,39.73z M75.57,36.65 h22.84V32.1c0-0.75,0.31-1.44,0.8-1.93c0.04-0.04,0.08-0.08,0.13-0.11c0.48-0.43,1.12-0.69,1.81-0.69h11.56 c0.75,0,1.43,0.31,1.93,0.8l0,0l0,0c0.49,0.49,0.8,1.18,0.8,1.93v36.47c0,0.75-0.31,1.44-0.8,1.93c-0.04,0.04-0.08,0.08-0.13,0.11 c-0.48,0.43-1.12,0.69-1.81,0.69h-11.56c-0.75,0-1.43-0.31-1.93-0.8l0,0l0,0c-0.49-0.49-0.8-1.18-0.8-1.93v-5.31l-0.05,0h-16.2 c-1.42,6.38-5.49,10.85-10.69,13.46c-3.72,1.87-8.02,2.79-12.33,2.78c-4.3,0-8.62-0.93-12.4-2.74c-5.52-2.65-9.89-7.18-11.4-13.51 h-0.85v0c-2.54,0.1-4.42,0.7-5.71,1.76c-1.21,1-1.92,2.48-2.17,4.41v7.76c0,0.85-0.69,1.54-1.54,1.54H1.54 C0.69,78.73,0,78.04,0,77.19V60.38h0c0-0.09,0.01-0.17,0.02-0.26c1.13-6.6,3.62-11.99,7.64-15.98c4-3.97,9.48-6.51,16.62-7.46 c0.11-0.02,0.22-0.04,0.34-0.04h17.93l3.11-10.59c0.2-0.67,0.81-1.1,1.47-1.1v0h5.14V13.34H39.71c-1.84,0-3.5-0.75-4.71-1.96 c-1.21-1.21-1.96-2.88-1.96-4.71c0-1.84,0.75-3.5,1.96-4.71C36.21,0.75,37.88,0,39.71,0h37.27c1.84,0,3.5,0.75,4.71,1.96 c1.21,1.21,1.96,2.88,1.96,4.71c0,1.84-0.75,3.5-1.96,4.71c-1.21,1.21-2.88,1.96-4.71,1.96H65.12v11.61h6.14 c0.74,0,1.36,0.52,1.51,1.22L75.57,36.65L75.57,36.65z M62.04,24.95V13.34h-6.69v11.61H62.04L62.04,24.95z M35.66,60.19l6-20.46 H24.68c-6.43,0.86-11.33,3.1-14.85,6.59c-3.52,3.49-5.72,8.27-6.75,14.18v15.15h20.46v-6.31c0-0.09,0.01-0.17,0.02-0.26 c0.34-2.74,1.41-4.9,3.27-6.43c1.81-1.5,4.33-2.34,7.61-2.46l0.05,0v-0.01H35.66L35.66,60.19z M38.26,62.24 c1.2,5.51,4.98,9.46,9.8,11.77c3.37,1.61,7.23,2.43,11.08,2.44c3.84,0,7.66-0.81,10.95-2.46c4.53-2.28,8.04-6.17,9.16-11.75 l-9.17-34.2H48.29l-3.11,10.59l-6.87,23.43C38.3,62.11,38.28,62.18,38.26,62.24L38.26,62.24z M76.99,3.08H39.71 c-0.99,0-1.88,0.4-2.54,1.06c-0.65,0.65-1.06,1.55-1.06,2.54c0,0.99,0.41,1.88,1.06,2.54c0.65,0.65,1.55,1.06,2.54,1.06h37.27 c0.99,0,1.88-0.41,2.54-1.06c0.65-0.65,1.06-1.55,1.06-2.54c0-0.99-0.41-1.88-1.06-2.54C78.87,3.48,77.97,3.08,76.99,3.08 L76.99,3.08z M112.36,32.44h-10.87v35.79h10.87V32.44L112.36,32.44z"/></g></svg>