<?xml version="1.0" standalone="no"?>
<!DOCTYPE svg PUBLIC "-//W3C//DTD SVG 20010904//EN"
 "http://www.w3.org/TR/2001/REC-SVG-20010904/DTD/svg10.dtd">
<svg version="1.0" xmlns="http://www.w3.org/2000/svg"
 width="1042.000000pt" height="1280.000000pt" viewBox="0 0 1042.000000 1280.000000"
 preserveAspectRatio="xMidYMid meet">
<g transform="translate(0.000000,1280.000000) scale(0.100000,-0.100000)"
fill="#000000" stroke="none">
<path d="M4425 12788 c-27 -5 -86 -16 -130 -24 -407 -78 -764 -381 -923 -784
-12 -30 -33 -100 -47 -155 -14 -55 -29 -102 -33 -106 -4 -4 -50 -14 -102 -22
-347 -58 -640 -268 -790 -567 -44 -89 -64 -147 -88 -260 l-18 -85 -105 -26
c-337 -86 -589 -332 -681 -664 -18 -67 -22 -106 -22 -240 1 -145 3 -168 28
-249 48 -157 112 -269 222 -386 290 -307 758 -374 1134 -163 83 47 230 178
292 262 l25 33 72 -31 c121 -54 212 -73 363 -78 159 -6 250 9 396 63 85 32
112 36 112 15 0 -5 -34 -34 -76 -67 -106 -80 -186 -179 -244 -299 -71 -146
-84 -203 -84 -375 -1 -154 9 -210 58 -332 38 -92 85 -164 165 -250 146 -156
317 -243 531 -269 279 -33 588 94 757 312 26 33 52 58 57 55 170 -76 272 -100
431 -99 137 0 244 20 342 63 25 11 52 20 59 20 8 0 42 -22 77 -48 253 -196
562 -288 878 -262 315 26 570 142 790 360 181 179 282 371 343 651 5 23 17 30
91 53 257 80 497 250 653 461 177 240 255 566 207 862 -121 747 -899 1226
-1668 1026 -55 -14 -102 -21 -107 -17 -4 5 -4 34 1 64 16 90 13 305 -5 404
-36 187 -99 343 -202 499 -228 342 -618 579 -1032 628 -122 15 -393 6 -492
-16 -107 -23 -267 -78 -349 -119 -39 -20 -77 -36 -84 -36 -7 0 -49 20 -92 45
-131 75 -265 116 -496 154 -77 13 -144 12 -214 -1z"/>
<path d="M1626 8660 l-309 -7 -24 -27 c-19 -22 -23 -39 -23 -89 0 -182 -253
-4517 -264 -4535 -5 -8 -55 -12 -159 -12 -84 0 -298 -3 -477 -7 l-324 -6 -24
-26 c-22 -24 -23 -32 -19 -96 6 -81 31 -882 47 -1490 6 -231 15 -584 20 -785
5 -201 14 -549 20 -775 5 -225 13 -488 16 -584 6 -172 7 -174 33 -199 l26 -24
250 5 c297 7 2120 24 3710 36 836 6 1146 11 1162 19 16 9 643 12 2553 12
l2531 0 24 26 25 27 0 1802 0 1802 -25 27 c-13 14 -34 26 -46 26 -12 0 -501
-208 -1088 -461 -586 -254 -1074 -464 -1083 -466 -12 -4 -19 2 -22 18 -3 13
-16 240 -31 504 -28 520 -29 525 -83 525 -16 0 -638 -254 -1383 -565 -1128
-470 -1356 -562 -1365 -550 -7 10 -13 204 -18 602 -7 588 -7 588 -29 612 l-22
24 -508 -7 -507 -6 -9 23 c-5 12 -19 159 -31 327 -19 278 -41 584 -130 1795
-96 1306 -101 1370 -115 1392 -9 12 -29 24 -47 27 -18 3 -207 15 -420 26 -398
21 -428 20 -442 -17 -3 -8 -47 -812 -97 -1786 -54 -1055 -95 -1777 -101 -1784
-14 -18 -234 -18 -244 -1 -4 7 -47 451 -96 988 -304 3374 -326 3613 -334 3633
-10 28 -47 37 -132 35 -42 -1 -216 -4 -386 -8z"/>
</g>
</svg>
