<?xml version="1.0" standalone="no"?>
<!DOCTYPE svg PUBLIC "-//W3C//DTD SVG 20010904//EN"
 "http://www.w3.org/TR/2001/REC-SVG-20010904/DTD/svg10.dtd">
<svg version="1.0" xmlns="http://www.w3.org/2000/svg"
 width="512.000000pt" height="512.000000pt" viewBox="0 0 512.000000 512.000000"
 preserveAspectRatio="xMidYMid meet">

<g transform="translate(0.000000,512.000000) scale(0.100000,-0.100000)"
fill="#000000" stroke="none">
<path d="M1239 5105 c-29 -16 -39 -34 -99 -185 -169 -424 -305 -984 -376
-1545 -17 -140 -16 -175 8 -208 13 -17 390 -179 445 -191 18 -4 39 0 60 11 34
19 224 265 378 491 50 72 94 131 98 132 10 0 414 -166 434 -178 10 -6 -32
-317 -185 -1378 l-198 -1369 -647 -5 -647 -5 -27 -28 -28 -27 0 -280 0 -280
28 -27 27 -28 2050 0 2050 0 27 28 28 27 0 281 0 281 -33 29 c-32 29 -33 29
-157 29 l-125 0 0 559 c0 507 -2 560 -17 572 -11 10 -54 15 -145 17 l-128 4 0
413 0 413 35 -9 c47 -13 98 11 119 56 54 112 156 373 156 396 0 46 -21 78 -64
98 -23 11 -535 225 -1139 475 -604 250 -1101 457 -1104 459 -2 3 17 47 43 98
26 52 76 159 111 239 72 167 78 204 36 245 -32 31 -922 404 -963 404 -14 0
-37 -6 -51 -14z m1379 -1857 c-6 -16 -233 -199 -236 -189 -3 10 24 213 34 257
5 20 8 20 105 -20 55 -22 98 -44 97 -48z m810 -328 l422 -174 0 -457 0 -457
-136 -4 c-121 -3 -137 -5 -150 -22 -12 -17 -14 -111 -14 -573 l0 -554 -117 3
-118 3 -172 1190 c-95 655 -172 1200 -173 1212 0 18 4 21 18 15 10 -4 208 -86
440 -182z m-647 -130 c19 -138 32 -249 28 -248 -22 8 -348 254 -348 263 0 12
259 233 274 234 6 1 26 -105 46 -249z m-268 -315 c97 -71 177 -133 177 -136 0
-7 -450 -293 -454 -288 -2 2 15 131 37 286 29 198 45 279 53 275 6 -4 90 -65
187 -137z m362 -337 c16 -96 104 -723 101 -726 -4 -4 -591 445 -591 452 0 6
467 305 477 306 4 0 10 -15 13 -32z m-378 -652 c167 -129 304 -238 302 -242
-3 -12 -752 -554 -758 -549 -4 5 142 1025 147 1025 2 0 141 -105 309 -234z
m558 -594 c16 -111 26 -204 23 -207 -3 -3 -150 -4 -328 -3 l-324 3 294 213
c162 116 297 209 301 205 3 -5 19 -99 34 -211z"/>
</g>
</svg>
