<?xml version="1.0" standalone="no"?>
<!DOCTYPE svg PUBLIC "-//W3C//DTD SVG 20010904//EN"
 "http://www.w3.org/TR/2001/REC-SVG-20010904/DTD/svg10.dtd">
<svg version="1.0" xmlns="http://www.w3.org/2000/svg"
 width="512.000000pt" height="512.000000pt" viewBox="0 0 512.000000 512.000000"
 preserveAspectRatio="xMidYMid meet">

<g transform="translate(0.000000,512.000000) scale(0.100000,-0.100000)"
fill="#000000" stroke="none">
<path d="M2964 5111 c-92 -24 -171 -86 -213 -169 -79 -156 -30 -441 122 -705
52 -90 66 -87 84 18 25 147 71 221 235 372 69 64 101 127 106 210 7 110 -44
210 -131 255 -46 23 -150 33 -203 19z"/>
<path d="M1615 4712 c-214 -64 -404 -281 -430 -492 -8 -71 15 -183 52 -252 84
-154 247 -257 433 -273 97 -9 186 10 327 69 199 82 300 102 463 92 116 -7 206
-27 322 -74 82 -33 103 -33 113 -1 10 31 -92 201 -214 359 -90 117 -299 323
-398 393 -92 65 -227 135 -323 167 -92 31 -262 37 -345 12z"/>
<path d="M3492 4486 c-148 -55 -300 -192 -428 -382 -51 -77 -63 -107 -46 -117
4 -3 41 6 82 20 60 21 95 26 175 27 93 0 107 -2 200 -39 166 -64 271 -57 367
26 129 109 121 281 -17 407 -92 85 -207 104 -333 58z"/>
<path d="M2571 3595 c-22 -19 -33 -40 -40 -78 -8 -40 -451 -3095 -451 -3111 0
-2 -34 -6 -76 -8 -113 -8 -118 -15 -122 -179 -4 -148 -1 -170 30 -199 22 -20
31 -20 940 -20 l919 0 24 25 c24 23 25 28 25 169 0 138 -1 146 -24 173 -21 25
-31 28 -100 31 -42 2 -76 9 -76 14 0 37 -453 3135 -460 3149 -6 9 -22 27 -36
38 -25 20 -39 21 -275 21 l-247 0 -31 -25z m389 -212 c0 -5 9 -63 19 -131 l18
-122 -161 -136 c-88 -75 -162 -131 -164 -126 -2 6 13 122 32 258 20 136 36
251 36 255 0 11 220 12 220 2z m113 -785 c20 -138 36 -253 34 -254 -4 -4 -356
261 -357 268 0 8 270 238 280 238 3 0 23 -113 43 -252z m-273 -316 c99 -73
180 -136 180 -140 -1 -8 -451 -294 -456 -289 -1 1 15 124 36 272 22 149 40
276 40 283 0 8 4 12 10 10 5 -1 91 -63 190 -136z m421 -700 c28 -199 49 -365
46 -368 -5 -5 -592 442 -592 451 0 3 108 74 240 158 193 123 241 150 247 138
4 -9 30 -179 59 -379z m-428 -302 c285 -219 305 -236 289 -251 -24 -24 -754
-551 -757 -547 -1 2 26 197 60 433 34 237 68 470 75 518 7 48 15 87 19 85 4
-2 145 -109 314 -238z m557 -597 c16 -112 30 -214 30 -228 l0 -25 -355 0
c-195 0 -355 3 -355 8 1 14 645 472 647 460 2 -7 16 -104 33 -215z"/>
</g>
</svg>
